<svg width="12" height="16" viewBox="0 0 12 16" fill="none" xmlns="http://www.w3.org/2000/svg">
<path id="Vector" d="M3.85714 4.71875C3.85714 3.42383 4.81607 2.375 6 2.375C6.85446 2.375 7.59107 2.91992 7.93661 3.71387C8.14018 4.18262 8.65179 4.38184 9.07768 4.15918C9.50357 3.93652 9.68839 3.37695 9.48482 2.91113C8.86607 1.4873 7.54018 0.5 6 0.5C3.87054 0.5 2.14286 2.38965 2.14286 4.71875V6.125H1.71429C0.76875 6.125 0 6.96582 0 8V13.625C0 14.6592 0.76875 15.5 1.71429 15.5H10.2857C11.2312 15.5 12 14.6592 12 13.625V8C12 6.96582 11.2312 6.125 10.2857 6.125H3.85714V4.71875Z" fill="#025892"/>
</svg>
